<svg xmlns="http://www.w3.org/2000/svg" version="1.1" xmlns:xlink="http://www.w3.org/1999/xlink" width="200" height="200"><svg xmlns="http://www.w3.org/2000/svg" version="1.1" xmlns:xlink="http://www.w3.org/1999/xlink" viewBox="0 0 200 200"><rect width="200" height="200" fill="url('#gradient')"></rect><defs><linearGradient id="SvgjsLinearGradient1001" gradientTransform="rotate(125 0.5 0.5)"><stop offset="0%" stop-color="#f1eee5"></stop><stop offset="100%" stop-color="#d5c3a1"></stop></linearGradient></defs><g><g fill="#1d425b" transform="matrix(4.796252927400468,0,0,4.796252927400468,7.001006449413524,134.08175031139365)" stroke="#f1eee5" stroke-width="0.5"><path d="M8.41-3.78L8.41-3.78Q8.41-4.53 7.88-4.95Q7.34-5.37 6.01-5.82Q4.67-6.27 3.82-6.69L3.82-6.69Q1.05-8.05 1.05-10.42L1.05-10.42Q1.05-11.60 1.74-12.50Q2.43-13.41 3.69-13.91Q4.95-14.41 6.52-14.41L6.52-14.41Q8.06-14.41 9.27-13.87Q10.49-13.32 11.16-12.31Q11.84-11.30 11.84-10L11.84-10L8.42-10Q8.42-10.87 7.89-11.35Q7.35-11.83 6.45-11.83L6.45-11.83Q5.53-11.83 5.00-11.42Q4.46-11.02 4.46-10.39L4.46-10.39Q4.46-9.84 5.05-9.40Q5.63-8.96 7.11-8.48Q8.58-8.01 9.53-7.46L9.53-7.46Q11.84-6.13 11.84-3.80L11.84-3.80Q11.84-1.93 10.43-0.87Q9.02 0.20 6.57 0.20L6.57 0.20Q4.84 0.20 3.44-0.42Q2.04-1.04 1.33-2.12Q0.63-3.20 0.63-4.61L0.63-4.61L4.06-4.61Q4.06-3.47 4.65-2.92Q5.24-2.38 6.57-2.38L6.57-2.38Q7.42-2.38 7.92-2.75Q8.41-3.12 8.41-3.78ZM20.93-3.78L20.93-3.78Q20.93-4.53 20.40-4.95Q19.86-5.37 18.53-5.82Q17.19-6.27 16.34-6.69L16.34-6.69Q13.57-8.05 13.57-10.42L13.57-10.42Q13.57-11.60 14.26-12.50Q14.95-13.41 16.21-13.91Q17.47-14.41 19.04-14.41L19.04-14.41Q20.58-14.41 21.79-13.87Q23.01-13.32 23.68-12.31Q24.36-11.30 24.36-10L24.36-10L20.94-10Q20.94-10.87 20.41-11.35Q19.87-11.83 18.96-11.83L18.96-11.83Q18.05-11.83 17.51-11.42Q16.98-11.02 16.98-10.39L16.98-10.39Q16.98-9.84 17.57-9.40Q18.15-8.96 19.63-8.48Q21.10-8.01 22.05-7.46L22.05-7.46Q24.36-6.13 24.36-3.80L24.36-3.80Q24.36-1.93 22.95-0.87Q21.54 0.20 19.09 0.20L19.09 0.20Q17.36 0.20 15.96-0.42Q14.56-1.04 13.85-2.12Q13.14-3.20 13.14-4.61L13.14-4.61L16.58-4.61Q16.58-3.47 17.17-2.92Q17.76-2.38 19.09-2.38L19.09-2.38Q19.94-2.38 20.43-2.75Q20.93-3.12 20.93-3.78ZM38.15-7.47L38.15-6.82Q38.15-4.74 37.38-3.13Q36.61-1.53 35.19-0.67Q33.77 0.20 31.95 0.20Q30.14 0.20 28.73-0.64Q27.32-1.47 26.54-3.03Q25.75-4.58 25.71-6.59L25.71-6.59L25.71-7.39Q25.71-9.48 26.48-11.08Q27.25-12.68 28.68-13.54Q30.11-14.41 31.93-14.41L31.93-14.41Q33.74-14.41 35.16-13.55Q36.57-12.70 37.36-11.11Q38.14-9.52 38.15-7.47L38.15-7.47ZM34.67-6.76L34.67-7.41Q34.67-9.53 33.96-10.63Q33.25-11.73 31.93-11.73L31.93-11.73Q29.36-11.73 29.21-7.86L29.21-7.86L29.20-6.82Q29.20-4.73 29.89-3.60Q30.59-2.48 31.95-2.48L31.95-2.48Q33.25-2.48 33.96-3.58Q34.66-4.69 34.67-6.76L34.67-6.76Z"></path></g></g></svg><style>@media (prefers-color-scheme: light) { :root { filter: none; } }
@media (prefers-color-scheme: dark) { :root { filter: none; } }
</style></svg>